<svg width="43" height="43" viewBox="0 0 43 43" fill="none" xmlns="http://www.w3.org/2000/svg">
<path d="M31.6133 31.6133C37.4332 25.7935 37.4332 16.3576 31.6133 10.5378C25.7935 4.71793 16.3576 4.71793 10.5378 10.5378C4.71792 16.3576 4.71792 25.7935 10.5378 31.6133C16.3576 37.4332 25.7935 37.4332 31.6133 31.6133Z" fill="#F9A140"/>
<path opacity="0.1" d="M20.9773 4.83078C12.0055 4.88528 4.77665 12.2024 4.83115 21.1742C4.88565 30.1459 12.2028 37.3747 21.1745 37.3203C30.1463 37.2658 37.3751 29.9487 37.3207 20.9769C37.2662 12.0052 29.949 4.77628 20.9773 4.83078ZM21.158 34.5917C13.6932 34.637 7.60515 28.6224 7.5598 21.1576C7.51445 13.6929 13.5291 7.60478 20.9938 7.55944C28.4586 7.51409 34.5467 13.5287 34.592 20.9935C34.6374 28.4582 28.6227 34.5463 21.158 34.5917Z" fill="#272525"/>
<path d="M20.9672 3.16446C11.0752 3.22452 3.10478 11.2923 3.16483 21.1843C3.22489 31.0763 11.2926 39.0467 21.1847 38.9866C31.0767 38.9266 39.0471 30.8588 38.9871 20.9667C38.9269 11.0747 30.8592 3.1044 20.9672 3.16446ZM21.1664 35.9781C12.9359 36.028 6.22334 29.3965 6.17338 21.166C6.12342 12.9356 12.755 6.22296 20.9854 6.173C29.2159 6.12305 35.9285 12.7546 35.9785 20.9851C36.0285 29.2155 29.3969 35.9281 21.1664 35.9781Z" fill="#F4D242"/>
<g filter="url(#filter0_d_41_194)">
<path d="M14.2752 22.7656C14.5692 22.7656 14.7456 22.5892 14.7456 22.4129C14.7456 21.8249 11.5704 21.8249 11.5704 19.2377C11.5704 17.8853 12.864 16.5918 14.922 16.5918C17.0387 16.5918 18.0971 17.8853 18.0971 17.8853L16.9799 19.6493C16.9799 19.6493 16.2743 19.0025 15.4511 19.0025C15.1572 19.0025 14.9808 19.1789 14.9808 19.3553C14.9808 19.9433 18.1559 19.9433 18.1559 22.5305C18.1559 23.8828 16.8623 25.1764 14.8044 25.1764C12.2172 25.1764 11.1588 23.7652 11.1588 23.7652L12.276 22.0013C12.276 22.0013 13.0992 22.7656 14.2752 22.7656ZM25.9173 16.7682L26.7993 21.2957L27.4461 16.7682H30.6212L28.8573 25H25.4469L24.565 20.8253L23.683 25H20.2727L18.5087 16.7682H21.6838L22.3306 21.2957L23.2126 16.7682H25.9173Z" fill="#F4D242"/>
</g>
<defs>
<filter id="filter0_d_41_194" x="11.1588" y="16.5918" width="20.4624" height="9.58463" filterUnits="userSpaceOnUse" color-interpolation-filters="sRGB">
<feFlood flood-opacity="0" result="BackgroundImageFix"/>
<feColorMatrix in="SourceAlpha" type="matrix" values="0 0 0 0 0 0 0 0 0 0 0 0 0 0 0 0 0 0 127 0" result="hardAlpha"/>
<feOffset dx="1" dy="1"/>
<feComposite in2="hardAlpha" operator="out"/>
<feColorMatrix type="matrix" values="0 0 0 0 0.845 0 0 0 0 0.522551 0 0 0 0 0.163367 0 0 0 1 0"/>
<feBlend mode="normal" in2="BackgroundImageFix" result="effect1_dropShadow_41_194"/>
<feBlend mode="normal" in="SourceGraphic" in2="effect1_dropShadow_41_194" result="shape"/>
</filter>
</defs>
</svg>
