<svg width="24" height="24" viewBox="0 0 24 24" fill="none" xmlns="http://www.w3.org/2000/svg">
<path d="M15.4148 7.34952C15.1254 7.34968 14.845 7.45019 14.6213 7.63393C14.3977 7.81766 14.2447 8.07326 14.1883 8.35716C14.132 8.64107 14.1759 8.93572 14.3124 9.19091C14.449 9.44611 14.6698 9.64606 14.9373 9.7567C15.2048 9.86734 15.5023 9.88182 15.7792 9.79767C16.0562 9.71353 16.2954 9.53597 16.4561 9.29524C16.6168 9.05451 16.689 8.76551 16.6605 8.47748C16.6321 8.18944 16.5046 7.9202 16.2998 7.71561C16.1837 7.59927 16.0458 7.50704 15.8939 7.44421C15.742 7.38138 15.5792 7.3492 15.4148 7.34952Z" fill="#524669"/>
<path d="M22.38 2.34655C22.3798 2.34515 22.3798 2.34373 22.38 2.34233C22.3404 2.16857 22.253 2.00935 22.1276 1.88262C22.0023 1.7559 21.8441 1.66672 21.6708 1.62514C20.2739 1.28436 18.0764 1.64764 15.6413 2.62264C13.1869 3.60702 10.8872 5.06014 9.33281 6.61733C8.8346 7.1129 8.37175 7.64279 7.94766 8.20311C6.90094 8.15624 5.97891 8.3053 5.20219 8.6442C2.49563 9.8353 1.72266 12.8836 1.51688 14.1351C1.4871 14.313 1.49876 14.4953 1.55095 14.6679C1.60314 14.8405 1.69445 14.9987 1.81777 15.1302C1.9411 15.2617 2.09311 15.363 2.26198 15.4262C2.43085 15.4894 2.61203 15.5128 2.79141 15.4945H2.7975L5.8125 15.1655C5.81625 15.2039 5.82047 15.239 5.82375 15.2714C5.86247 15.6388 6.02632 15.9817 6.28781 16.2426L7.75922 17.715C8.01978 17.9768 8.36262 18.1409 8.73 18.1795L8.83078 18.1903L8.50266 21.2015V21.2076C8.48589 21.3698 8.50315 21.5337 8.55333 21.6888C8.60351 21.844 8.6855 21.9869 8.79408 22.1086C8.90265 22.2302 9.03541 22.3278 9.18387 22.3952C9.33233 22.4626 9.49322 22.4983 9.65625 22.5C9.72142 22.5 9.78649 22.4947 9.85078 22.484C11.1094 22.2815 14.1563 21.518 15.3441 18.7969C15.6802 18.0253 15.8288 17.107 15.787 16.0622C16.3499 15.639 16.8817 15.1761 17.3784 14.677C18.9455 13.118 20.4033 10.837 21.3773 8.41827C22.3472 6.01077 22.7123 3.79686 22.38 2.34655ZM17.3616 10.544C16.9764 10.9296 16.4855 11.1923 15.9511 11.2988C15.4166 11.4053 14.8626 11.3509 14.359 11.1425C13.8555 10.9341 13.425 10.581 13.1222 10.1279C12.8194 9.67481 12.6577 9.14207 12.6577 8.59709C12.6577 8.05212 12.8194 7.51938 13.1222 7.06629C13.425 6.61319 13.8555 6.2601 14.359 6.05168C14.8626 5.84325 15.4166 5.78887 15.9511 5.89539C16.4855 6.00192 16.9764 6.26458 17.3616 6.65014C17.6197 6.90442 17.8247 7.2075 17.9647 7.54175C18.1046 7.876 18.1767 8.23474 18.1767 8.59709C18.1767 8.95945 18.1046 9.31819 17.9647 9.65244C17.8247 9.98669 17.6197 10.2898 17.3616 10.544Z" fill="#524669"/>
<path d="M7.59047 18.1144C7.40909 18.0919 7.22573 18.1364 7.07485 18.2395C6.77531 18.4444 6.47438 18.6469 6.17063 18.8442C5.5561 19.2436 4.8211 18.5423 5.18625 17.9067L5.75578 16.9223C5.83721 16.8032 5.88255 16.6632 5.88636 16.5189C5.89018 16.3747 5.85231 16.2324 5.77731 16.1092C5.7023 15.9859 5.59333 15.8869 5.46347 15.824C5.3336 15.7612 5.18836 15.7371 5.04516 15.7547C4.41305 15.8346 3.82549 16.1225 3.375 16.5731C3.20344 16.7452 2.68172 17.2673 2.40094 19.2572C2.32102 19.8287 2.27064 20.404 2.25 20.9808C2.24744 21.0809 2.26494 21.1805 2.30148 21.2737C2.33802 21.3669 2.39286 21.4519 2.46276 21.5236C2.53266 21.5953 2.61621 21.6522 2.70848 21.6911C2.80075 21.73 2.89987 21.75 3 21.75H3.01875C3.59594 21.7296 4.1717 21.6795 4.74375 21.6C6.73453 21.3187 7.25672 20.7966 7.42828 20.625C7.88095 20.1743 8.16818 19.584 8.24344 18.9497C8.26754 18.7523 8.2123 18.5535 8.08986 18.3969C7.96742 18.2402 7.7878 18.1386 7.59047 18.1144Z" fill="#524669"/>
</svg>
