<svg width="350" height="48" viewBox="0 0 350 48" fill="none" xmlns="http://www.w3.org/2000/svg">
<path d="M6.64822 5.54379H113.261C117.018 5.54379 120.005 8.45428 120.005 11.9654V41.6246C120.005 45.1357 117.018 48 113.261 48H6.64822C2.98688 48 0 45.1357 0 41.6246V11.9654C0 8.45428 2.98688 5.54379 6.64822 5.54379Z" fill="#DA7906"/>
<path d="M112.985 5.54379H219.597C223.355 5.54379 226.342 8.45428 226.342 11.9654V41.6246C226.342 45.1357 223.355 48 219.597 48H112.985C109.324 48 106.337 45.1357 106.337 41.6246V11.9654C106.337 8.45428 109.324 5.54379 112.985 5.54379Z" fill="#DA7906"/>
<path d="M153.643 5.54379H260.255C264.013 5.54379 267 8.45428 267 11.9654V41.6246C267 45.1357 264.013 48 260.255 48H153.643C149.982 48 146.995 45.1357 146.995 41.6246V11.9654C146.995 8.45428 149.982 5.54379 153.643 5.54379Z" fill="#DA7906"/>
<path d="M89.6482 5.54379H196.261C200.018 5.54379 203.005 8.45428 203.005 11.9654V41.6246C203.005 45.1357 200.018 48 196.261 48H89.6482C85.9869 48 83 45.1357 83 41.6246V11.9654C83 8.45428 85.9869 5.54379 89.6482 5.54379Z" fill="#DA7906"/>
<path d="M195.985 5.54379H302.597C306.355 5.54379 309.342 8.45428 309.342 11.9654V41.6246C309.342 45.1357 306.355 48 302.597 48H195.985C192.324 48 189.337 45.1357 189.337 41.6246V11.9654C189.337 8.45428 192.324 5.54379 195.985 5.54379Z" fill="#DA7906"/>
<path d="M236.643 5.54379H343.255C347.013 5.54379 350 8.45428 350 11.9654V41.6246C350 45.1357 347.013 48 343.255 48H236.643C232.982 48 229.995 45.1357 229.995 41.6246V11.9654C229.995 8.45428 232.982 5.54379 236.643 5.54379Z" fill="#DA7906"/>
<path d="M6.64822 1.20116H113.261C117.018 1.20116 120.005 4.11165 120.005 7.62272V37.282C120.005 40.7931 117.018 43.7036 113.261 43.7036H6.64822C2.98688 43.7036 0 40.7931 0 37.282V7.62272C0 4.11165 2.98688 1.20116 6.64822 1.20116Z" fill="#F4B609"/>
<path d="M112.985 1.20116H219.597C223.355 1.20116 226.342 4.11165 226.342 7.62272V37.282C226.342 40.7931 223.355 43.7036 219.597 43.7036H112.985C109.324 43.7036 106.337 40.7931 106.337 37.282V7.62272C106.337 4.11165 109.324 1.20116 112.985 1.20116Z" fill="#F4B609"/>
<path d="M153.643 1.20116H260.255C264.013 1.20116 267 4.11165 267 7.62272V37.282C267 40.7931 264.013 43.7036 260.255 43.7036H153.643C149.982 43.7036 146.995 40.7931 146.995 37.282V7.62272C146.995 4.11165 149.982 1.20116 153.643 1.20116Z" fill="#F4B609"/>
<path d="M89.6482 1.20116H196.261C200.018 1.20116 203.005 4.11165 203.005 7.62272V37.282C203.005 40.7931 200.018 43.7036 196.261 43.7036H89.6482C85.9869 43.7036 83 40.7931 83 37.282V7.62272C83 4.11165 85.9869 1.20116 89.6482 1.20116Z" fill="#F4B609"/>
<path d="M195.985 1.20116H302.597C306.355 1.20116 309.342 4.11165 309.342 7.62272V37.282C309.342 40.7931 306.355 43.7036 302.597 43.7036H195.985C192.324 43.7036 189.337 40.7931 189.337 37.282V7.62272C189.337 4.11165 192.324 1.20116 195.985 1.20116Z" fill="#F4B609"/>
<path d="M236.643 1.20116H343.255C347.013 1.20116 350 4.11165 350 7.62272V37.282C350 40.7931 347.013 43.7036 343.255 43.7036H236.643C232.982 43.7036 229.995 40.7931 229.995 37.282V7.62272C229.995 4.11165 232.982 1.20116 236.643 1.20116Z" fill="#F4B609"/>
<path d="M7.11953 0H113.732C117.49 0 120.476 2.86429 120.476 6.37536V36.0808C120.476 39.5457 117.49 42.4562 113.732 42.4562H7.11953C3.45819 42.4562 0.471313 39.5457 0.471313 36.0808V6.37536C0.471313 2.86429 3.45819 0 7.11953 0Z" fill="#EA9909"/>
<path d="M113.456 0H220.069C223.826 0 226.813 2.86429 226.813 6.37536V36.0808C226.813 39.5457 223.826 42.4562 220.069 42.4562H113.456C109.795 42.4562 106.808 39.5457 106.808 36.0808V6.37536C106.808 2.86429 109.795 0 113.456 0Z" fill="#EA9909"/>
<path d="M154.114 0H260.727C264.484 0 267.471 2.86429 267.471 6.37536V36.0808C267.471 39.5457 264.484 42.4562 260.727 42.4562H154.114C150.453 42.4562 147.466 39.5457 147.466 36.0808V6.37536C147.466 2.86429 150.453 0 154.114 0Z" fill="#EA9909"/>
<path d="M89.6482 0H196.261C200.018 0 203.005 2.86429 203.005 6.37536V36.0808C203.005 39.5457 200.018 42.4562 196.261 42.4562H89.6482C85.9869 42.4562 83 39.5457 83 36.0808V6.37536C83 2.86429 85.9869 0 89.6482 0Z" fill="#EA9909"/>
<path d="M195.985 0H302.597C306.355 0 309.342 2.86429 309.342 6.37536V36.0808C309.342 39.5457 306.355 42.4562 302.597 42.4562H195.985C192.324 42.4562 189.337 39.5457 189.337 36.0808V6.37536C189.337 2.86429 192.324 0 195.985 0Z" fill="#EA9909"/>
<path d="M236.643 0H343.255C347.013 0 350 2.86429 350 6.37536V36.0808C350 39.5457 347.013 42.4562 343.255 42.4562H236.643C232.982 42.4562 229.995 39.5457 229.995 36.0808V6.37536C229.995 2.86429 232.982 0 236.643 0Z" fill="#EA9909"/>
</svg>
