<svg width="30" height="30" viewBox="0 0 30 30" fill="none" xmlns="http://www.w3.org/2000/svg">
<g clip-path="url(#clip0_52_553)">
<path fill-rule="evenodd" clip-rule="evenodd" d="M12.4017 12.5358H17.5978V25.3256L16.2989 23.2397L15 21.1533L13.7011 23.2397L12.4017 25.3256V12.5358Z" fill="#FBD226"/>
<path d="M17.1436 12.99H12.8559V23.7389L13.3158 23.0002L14.6006 20.9367C14.6386 20.867 14.6942 20.8085 14.7619 20.7669C14.8295 20.7254 14.9069 20.7023 14.9862 20.6999C15.0656 20.6975 15.1442 20.716 15.2142 20.7534C15.2842 20.7909 15.3432 20.846 15.3853 20.9133L15 21.1533L15.3848 20.9137L16.6838 23.0002L17.1436 23.7389V12.99ZM12.4017 12.0816H17.5978C17.7182 12.0817 17.8337 12.1296 17.9189 12.2147C18.004 12.2999 18.0519 12.4153 18.052 12.5358V25.3256C18.0518 25.4265 18.018 25.5244 17.9559 25.604C17.8939 25.6836 17.8072 25.7403 17.7094 25.7651C17.6116 25.79 17.5083 25.7816 17.4158 25.7413C17.3233 25.7011 17.2469 25.6312 17.1984 25.5427L15.9141 23.4792L15 22.0111L14.0859 23.4792L12.7866 25.5656L12.4017 25.3256L12.787 25.5661C12.735 25.6501 12.657 25.7149 12.5648 25.7505C12.4726 25.7861 12.3713 25.7906 12.2763 25.7634C12.1813 25.7362 12.0978 25.6787 12.0384 25.5997C11.9791 25.5207 11.9472 25.4244 11.9475 25.3256V12.5358C11.9476 12.4153 11.9955 12.2999 12.0807 12.2147C12.1658 12.1296 12.2813 12.0817 12.4017 12.0816Z" fill="#231F20"/>
<path fill-rule="evenodd" clip-rule="evenodd" d="M15 6.4725C17.9639 6.4725 20.3672 8.87532 20.3672 11.8397C20.3672 14.8036 17.9639 17.2064 15 17.2064C12.0361 17.2064 9.63281 14.8036 9.63281 11.8397C9.63281 8.87532 12.0361 6.4725 15 6.4725Z" fill="#FBD226"/>
<path fill-rule="evenodd" clip-rule="evenodd" d="M15 4.74797C18.9164 4.74797 22.0912 7.92281 22.0912 11.8397C22.0912 15.7561 18.9164 18.9309 15 18.9309C11.0831 18.9309 7.90828 15.7561 7.90828 11.8397C7.90828 7.92281 11.0831 4.74797 15 4.74797Z" fill="#FBD226"/>
<path d="M19.6936 7.1461C19.0779 6.52882 18.3463 6.03928 17.5408 5.70561C16.7353 5.37193 15.8719 5.20069 15 5.20172C13.1672 5.20172 11.5073 5.94516 10.3064 7.1461C9.68922 7.76183 9.1998 8.49346 8.86628 9.29894C8.53276 10.1044 8.36171 10.9679 8.36297 11.8397C8.36297 13.6725 9.10547 15.3319 10.3064 16.5328C10.922 17.1502 11.6536 17.6398 12.4591 17.9735C13.2646 18.3072 14.1281 18.4784 15 18.4772C16.8328 18.4772 18.4927 17.7342 19.6936 16.5328C20.3106 15.9171 20.8 15.1855 21.1335 14.3801C21.467 13.5747 21.6381 12.7114 21.637 11.8397C21.637 10.0064 20.8945 8.34703 19.6936 7.1461ZM15 4.29375C17.0836 4.29375 18.9698 5.13844 20.3353 6.50391C21.0372 7.20376 21.5938 8.03544 21.9732 8.95115C22.3526 9.86685 22.5472 10.8485 22.5459 11.8397C22.5459 13.9233 21.7012 15.8095 20.3353 17.175C19.6355 17.8767 18.8038 18.4332 17.8882 18.8125C16.9726 19.1918 15.9911 19.3864 15 19.3852C12.9164 19.3852 11.0297 18.5405 9.66422 17.175C8.96253 16.4751 8.40605 15.6435 8.02676 14.7279C7.64747 13.8123 7.45284 12.8307 7.45406 11.8397C7.45406 9.7561 8.29875 7.86938 9.66422 6.50391C10.3642 5.80219 11.1959 5.24569 12.1116 4.8664C13.0273 4.48711 14.0089 4.2925 15 4.29375Z" fill="#231F20"/>
<path fill-rule="evenodd" clip-rule="evenodd" d="M15 6.4725C17.9639 6.4725 20.3672 8.87532 20.3672 11.8397C20.3672 14.8036 17.9639 17.2064 15 17.2064C12.0361 17.2064 9.63281 14.8036 9.63281 11.8397C9.63281 8.87532 12.0361 6.4725 15 6.4725Z" fill="#F8DE7F"/>
<path d="M20.2894 9.41297C20.2647 9.35892 20.2296 9.31027 20.1861 9.26978C20.1426 9.2293 20.0916 9.19777 20.0359 9.17701C19.9802 9.15625 19.921 9.14665 19.8616 9.14877C19.8023 9.1509 19.7439 9.16469 19.6898 9.18938C19.6358 9.21406 19.5871 9.24915 19.5466 9.29264C19.5062 9.33613 19.4746 9.38717 19.4539 9.44284C19.4331 9.49851 19.4235 9.55772 19.4256 9.6171C19.4278 9.67648 19.4416 9.73486 19.4662 9.78891C19.7602 10.4327 19.9123 11.132 19.9125 11.8397C19.9133 12.4849 19.7867 13.124 19.5398 13.7202C19.2929 14.3163 18.9307 14.8578 18.4739 15.3136C18.0182 15.7704 17.4767 16.1327 16.8805 16.3797C16.2843 16.6266 15.6453 16.7534 15 16.7527C14.3547 16.7534 13.7156 16.6267 13.1195 16.3797C12.5233 16.1328 11.9818 15.7705 11.5261 15.3136C11.0693 14.8579 10.707 14.3164 10.4601 13.7202C10.2132 13.124 10.0866 12.485 10.0875 11.8397C10.0875 10.4827 10.6369 9.25453 11.5261 8.36578C11.9817 7.90884 12.5232 7.54647 13.1194 7.2995C13.7156 7.05254 14.3547 6.92585 15 6.92672C15.1169 6.92141 15.2272 6.87123 15.3081 6.78663C15.3889 6.70203 15.434 6.58952 15.434 6.4725C15.434 6.35549 15.3889 6.24297 15.3081 6.15837C15.2272 6.07377 15.1169 6.0236 15 6.01828C14.2353 6.01729 13.478 6.16744 12.7715 6.4601C12.0651 6.75275 11.4234 7.18215 10.8834 7.7236C10.3422 8.26359 9.91302 8.9052 9.62053 9.61158C9.32804 10.3179 9.17801 11.0752 9.17906 11.8397C9.17906 13.447 9.83015 14.902 10.8834 15.9558C11.4235 16.4971 12.0652 16.9264 12.7716 17.219C13.4781 17.5115 14.2354 17.6616 15 17.6606C15.7646 17.6616 16.5218 17.5115 17.2282 17.2189C17.9345 16.9264 18.5761 16.4971 19.1161 15.9558C19.6574 15.4158 20.0866 14.7742 20.3792 14.0678C20.6717 13.3615 20.8219 12.6043 20.8209 11.8397C20.8209 11.422 20.7755 11.0058 20.6869 10.598C20.5971 10.1899 20.4639 9.79262 20.2894 9.41297Z" fill="#231F20"/>
<path d="M17.2608 6.47719C17.206 6.45414 17.1473 6.44209 17.0879 6.44175C17.0285 6.44141 16.9696 6.45277 16.9145 6.47518C16.8595 6.4976 16.8095 6.53063 16.7672 6.5724C16.7249 6.61416 16.6913 6.66384 16.6683 6.7186C16.6452 6.77335 16.6332 6.83211 16.6328 6.89152C16.6325 6.95093 16.6439 7.00982 16.6663 7.06484C16.6887 7.11986 16.7217 7.16993 16.7635 7.21218C16.8053 7.25443 16.8549 7.28804 16.9097 7.3111C17.4443 7.53758 17.9349 7.85634 18.3591 8.25282C18.4466 8.33512 18.5632 8.37928 18.6833 8.37558C18.8034 8.37189 18.9171 8.32065 18.9994 8.23313C19.0817 8.14561 19.1258 8.02898 19.1221 7.90889C19.1185 7.78881 19.0672 7.67511 18.9797 7.59281C18.4772 7.12228 17.8952 6.74456 17.2608 6.47719Z" fill="#231F20"/>
</g>
<defs>
<clipPath id="clip0_52_553">
<rect width="30" height="30" fill="white"/>
</clipPath>
</defs>
</svg>
